# xmcd
#
# Track frame offsets:
#	150
#	15793
#	33107
#	52750
#	70869
#	89521
#	103404
#	119203
#	135383
#	149196
#	170579
#	191937
#	200395
#	217640
#	236976
#	253199
#	268150
#	283765
#
# Disc length: 4044 seconds
#
# Revision: 0
# Processed by: cddbd v1.5.2PL0 Copyright (c) Steve Scherf et al.
# Submitted via: dBpowerAMP V4.0
#
DISCID=180fca12
DTITLE=Noa - Blue touches blue
DYEAR=2000
DGENRE=Pop
TTITLE0=If I give you everything
TTITLE1=Blue touches blue
TTITLE2=Explain the night
TTITLE3=Home made religion
TTITLE4=Wrap it up with love
TTITLE5=Angel
TTITLE6=Haunted
TTITLE7=Again and again
TTITLE8=Long coat in winter
TTITLE9=Montecarlo night
TTITLE10=carefully
TTITLE11=Dala dala
TTITLE12=Morning
TTITLE13=The beauty of that
TTITLE14=Beautiful that way
TTITLE15=la vida es bella
TTITLE16=si je m'abandonne a toi
TTITLE17=uno queriendo se dos
EXTD=
EXTT0=
EXTT1=
EXTT2=
EXTT3=
EXTT4=
EXTT5=
EXTT6=
EXTT7=
EXTT8=
EXTT9=
EXTT10=
EXTT11=
EXTT12=
EXTT13=
EXTT14=
EXTT15=
EXTT16=
EXTT17=
PLAYORDER=
